#!OML:ASF I:\Random Stuff\random\construction\7_22_03\Session 2\subj1.ASF
:FULLY-SPECIFIED
:DEGREES
590
root -0.176499 17.7928 -0.416417 -3.61326 75.067 -10.701
lowerback 1.99891 0.365761 0.445275
upperback -3.21576 0.612943 1.80501
thorax -4.45189 0.337823 1.57697
lowerneck -24.3359 1.24462 2.30878
upperneck 26.2406 0.987998 0.147908
head 12.8241 0.76019 -0.137914
rclavicle -2.18601e-014 1.15295e-014
rhumerus -3.99572 30.444 -82.5225
rradius 122.834
rwrist -17.3308
rhand -31.8758 26.4803
rfingers 7.12502
rthumb -5.12876 -3.43768
lclavicle -2.18601e-014 1.15295e-014
lhumerus -34.5297 -14.6213 97.5794
lradius 30.1987
lwrist 27.7283
lhand -20.3953 58.1822
lfingers 7.12502
lthumb 5.9582 -271.922
rfemur -1.51488 3.8991 21.8052
rtibia -3.18055e-015
rfoot -3.0841 -14.318
rtoes -9.04101
lfemur -12.4778 -18.7156 -11.6794
ltibia 18.7728
lfoot -12.5421 14.8546
ltoes -31.1551
591
root -0.178607 17.7985 -0.417035 -3.74332 75.026 -10.8562
lowerback 1.96592 0.330234 0.464121
upperback -3.25268 0.570106 1.86395
thorax -4.47112 0.317709 1.63004
lowerneck -24.2017 1.29578 2.21228
upperneck 26.2108 1.09762 0.171451
head 12.7856 0.802101 -0.0938537
rclavicle 5.96354e-016 5.1684e-015
rhumerus -4.09724 30.5979 -82.5632
rradius 122.826
rwrist -17.3293
rhand -31.9621 26.5231
rfingers 7.12502
rthumb -5.21213 -3.39281
lclavicle 5.96354e-016 5.1684e-015
lhumerus -34.526 -14.2798 97.4931
lradius 30.0548
lwrist 27.5571
lhand -20.2676 58.1674
lfingers 7.12502
lthumb 6.08148 -271.94
rfemur -1.55513 3.93578 21.8224
rtibia 2.38542e-015
rfoot -3.27853 -14.2619
rtoes -6.52202
lfemur -12.4699 -18.6818 -11.6231
ltibia 18.713
lfoot -12.5343 14.8533
ltoes -31.0105
592
root -0.181227 17.7972 -0.418214 -3.85361 74.9952 -10.9369
lowerback 1.93854 0.328942 0.457348
upperback -3.20354 0.567971 1.90374
thorax -4.40489 0.317229 1.67516
lowerneck -24.2501 1.30909 2.11459
upperneck 26.1027 1.13488 0.218994
head 12.7508 0.812871 -0.0530073
rclavicle -4.87768e-014 -3.97569e-015
rhumerus -4.06697 30.6227 -82.5013
rradius 122.831
rwrist -17.4079
rhand -31.9256 26.6631
rfingers 7.12502
rthumb -5.17687 -3.25368
lclavicle -4.87768e-014 -3.97569e-015
lhumerus -34.4321 -14.1996 97.4727
lradius 29.9723
lwrist 27.5665
lhand -20.3325 58.2517
lfingers 7.12502
lthumb 6.01885 -271.854
rfemur -1.5372 3.96408 21.8501
rtibia -9.54166e-015
rfoot -3.23329 -14.2446
rtoes -6.93789
lfemur -12.4323 -18.7242 -11.6015
ltibia 18.6994
lfoot -12.5474 14.8951
ltoes -30.9656
593
root -0.183592 17.7907 -0.420699 -3.86344 75.0044 -10.8936
lowerback 1.92862 0.34481 0.445508
upperback -3.13622 0.585264 1.88619
thorax -4.32948 0.325007 1.66262
lowerneck -24.3613 1.28695 2.18553
upperneck 26.0486 1.0752 0.19696
head 12.7512 0.78903 -0.0838474
rclavicle 4.28226e-014 8.34896e-015
rhumerus -4.01588 30.5434 -82.4586
rradius 122.839
rwrist -17.5042
rhand -31.8767 26.8102
rfingers 7.12502
rthumb -5.12969 -3.10775
lclavicle 4.28226e-014 8.34896e-015
lhumerus -34.3413 -14.3148 97.446
lradius 29.9312
lwrist 27.5665
lhand -20.3218 58.3456
lfingers 7.12502
lthumb 6.0291 -271.76
rfemur -1.48696 3.9558 21.8637
rtibia -1.11319e-014
rfoot -3.00872 -14.283
rtoes -9.53065
lfemur -12.4112 -18.8257 -11.6267
ltibia 18.7456
lfoot -12.6218 14.9535
ltoes -30.6987
594
root -0.185627 17.7887 -0.423756 -3.79308 74.9965 -10.7982
lowerback 1.95968 0.35525 0.459665
upperback -3.14758 0.598822 1.84991
thorax -4.35868 0.330579 1.61626
lowerneck -24.3788 1.2679 2.2982
upperneck 26.0875 1.0224 0.136361
head 12.771 0.769338 -0.1352
rclavicle -6.2201e-014 -8.74653e-015
rhumerus -4.10034 30.5269 -82.5239
rradius 122.854
rwrist -17.5586
rhand -31.9494 26.8918
rfingers 7.12502
rthumb -5.1999 -3.02437
lclavicle -6.2201e-014 -8.74653e-015
lhumerus -34.3572 -14.3796 97.4159
lradius 29.8939
lwrist 27.549
lhand -20.2954 58.4172
lfingers 7.12502
lthumb 6.05464 -271.689
rfemur -1.46716 3.9649 21.845
rtibia 7.95139e-016
rfoot -2.9414 -14.3251
rtoes -10.5865
lfemur -12.4395 -18.8514 -11.6641
ltibia 18.8414
lfoot -12.7024 14.9716
ltoes -30.5179
595
root -0.186886 17.788 -0.424825 -3.88899 74.949 -10.8538
lowerback 2.02516 0.369245 0.501498
upperback -3.17992 0.621163 1.84539
thorax -4.42967 0.340571 1.58654
lowerneck -24.3747 1.2502 2.31865
upperneck 26.1433 1.00051 0.104861
head 12.7928 0.758368 -0.154407
rclavicle 7.15407e-014 2.48481e-014
rhumerus -4.21786 30.5735 -82.5952
rradius 122.876
rwrist -17.5747
rhand -32.0327 26.8668
rfingers 7.12502
rthumb -5.28029 -3.04741
lclavicle 7.15407e-014 2.48481e-014
lhumerus -34.4077 -14.396 97.4251
lradius 29.8619
lwrist 27.5879
lhand -20.3807 58.4802
lfingers 7.12502
lthumb 5.97229 -271.624
rfemur -1.42981 4.00994 21.8659
rtibia 3.18055e-015
rfoot -2.91469 -14.3272
rtoes -10.7582
lfemur -12.423 -18.7361 -11.6683
ltibia 18.9206
lfoot -12.7326 14.9066
ltoes -30.6141
596
root -0.187584 17.7862 -0.424723 -4.18162 74.9006 -11.0916
lowerback 2.06833 0.37769 0.574007
upperback -3.17923 0.637428 1.86808
thorax -4.45344 0.34679 1.56813
lowerneck -24.3495 1.26202 2.26848
upperneck 26.1319 1.03145 0.126648
head 12.783 0.769889 -0.13223
rclavicle -2.57488e-015 7.35503e-015
rhumerus -4.29645 30.6275 -82.6307
rradius 122.893
rwrist -17.6331
rhand -32.0707 26.8582
rfingers 7.12502
rthumb -5.31695 -3.05508
lclavicle -2.57488e-015 7.35503e-015
lhumerus -34.4309 -14.4054 97.4293
lradius 29.8475
lwrist 27.6048
lhand -20.4049 58.4316
lfingers 7.12502
lthumb 5.94891 -271.672
rfemur -1.37064 4.05232 21.9432
rtibia -2.38542e-015
rfoot -2.82949 -14.2925
rtoes -11.2325
lfemur -12.3576 -18.6517 -11.6193
ltibia 18.9449
lfoot -12.7548 14.8572
ltoes -30.5874
597
root -0.18894 17.7863 -0.427069 -4.04194 74.8781 -10.9444
lowerback 2.0615 0.367129 0.574138
upperback -3.18747 0.622867 1.85632
thorax -4.45763 0.339339 1.5568
lowerneck -24.3022 1.30374 2.27588
upperneck 26.0958 1.10035 0.0918464
head 12.7601 0.795641 -0.135023
rclavicle -3.47594e-014 -1.27222e-014
rhumerus -4.35893 30.6936 -82.6783
rradius 122.928
rwrist -17.8563
rhand -31.9609 26.7784
rfingers 7.12502
rthumb -5.21098 -3.13756
lclavicle -3.47594e-014 -1.27222e-014
lhumerus -34.4569 -14.3935 97.3949
lradius 29.8641
lwrist 27.5501
lhand -20.3015 58.3166
lfingers 7.12502
lthumb 6.04871 -271.79
rfemur -1.37851 4.07655 21.8975
rtibia -3.97569e-015
rfoot -2.8346 -14.2794
rtoes -11.3464
lfemur -12.3523 -18.6356 -11.6668
ltibia 18.9412
lfoot -12.7238 14.8717
ltoes -30.6341
598
root -0.190666 17.7857 -0.429987 -3.78865 74.8581 -10.6867
lowerback 2.1081 0.363712 0.576045
upperback -3.24053 0.618959 1.81797
thorax -4.5388 0.33693 1.51613
lowerneck -24.2627 1.32118 2.32079
upperneck 26.1279 1.1352 0.0123566
head 12.7664 0.805098 -0.167001
rclavicle -8.03835e-015 -5.96354e-016
rhumerus -4.49293 30.7339 -82.7856
rradius 122.981
rwrist -18.1589
rhand -31.7788 26.7039
rfingers 7.12502
rthumb -5.03517 -3.21623
lclavicle -8.03835e-015 -5.96354e-016
lhumerus -34.5846 -14.4393 97.3986
lradius 29.9225
lwrist 27.5295
lhand -20.2376 58.2644
lfingers 7.12502
lthumb 6.11045 -271.844
rfemur -1.39375 4.10013 21.8204
rtibia -9.54166e-015
rfoot -2.90795 -14.3112
rtoes -10.928
lfemur -12.344 -18.6095 -11.7469
ltibia 18.9198
lfoot -12.6885 14.8764
ltoes -30.6764
599
root -0.192434 17.7842 -0.431338 -3.74312 74.8295 -10.6213
lowerback 2.15926 0.35856 0.605607
upperback -3.29152 0.615596 1.81048
thorax -4.62061 0.334555 1.49181
lowerneck -24.2091 1.33082 2.23602
upperneck 26.1357 1.17155 0.0564278
head 12.7583 0.819189 -0.129515
rclavicle -4.0667e-014 -1.66979e-014
rhumerus -4.62534 30.8035 -82.8836
rradius 122.994
rwrist -18.3903
rhand -31.6365 26.733
rfingers 7.12502
rthumb -4.89774 -3.19042
lclavicle -4.0667e-014 -1.66979e-014
lhumerus -34.7333 -14.4404 97.4402
lradius 29.9939
lwrist 27.561
lhand -20.2971 58.2505
lfingers 7.12502
lthumb 6.05297 -271.856
rfemur -1.37948 4.12907 21.8047
rtibia -1.59028e-015
rfoot -2.92721 -14.3454
rtoes -10.7676
lfemur -12.3009 -18.6004 -11.7675
ltibia 18.8764
lfoot -12.6754 14.8681
ltoes -30.4506
